<?xml version="1.0" encoding="UTF-8" standalone="no"?>
<!DOCTYPE svg PUBLIC "-//W3C//DTD SVG 1.1//EN"
 "http://www.w3.org/Graphics/SVG/1.1/DTD/svg11.dtd">
<!-- Generated by graphviz version 2.40.1 (20161225.0304)
 -->
<!-- Title: G Pages: 1 -->
<svg width="298pt" height="286pt"
 viewBox="0.00 0.00 298.00 286.00" xmlns="http://www.w3.org/2000/svg" xmlns:xlink="http://www.w3.org/1999/xlink">
<g id="graph0" class="graph" transform="scale(1 1) rotate(0) translate(4 282)">
<title>G</title>
<polygon fill="#ffffff" stroke="transparent" points="-4,4 -4,-282 294,-282 294,4 -4,4"/>
<!-- A0 -->
<g id="node1" class="node">
<title>A0</title>
<polygon fill="none" stroke="#000000" points="188,-246 188,-278 290,-278 290,-246 188,-246"/>
<text text-anchor="start" x="212.74" y="-259" font-family="Helvetica,sans-Serif" font-size="10.00" fill="#000000">+A:Reading</text>
<polygon fill="none" stroke="#000000" points="188,-190 188,-246 290,-246 290,-190 188,-190"/>
<text text-anchor="start" x="197.742" y="-227" font-family="Helvetica,sans-Serif" font-size="10.00" fill="#000000">+BookName:string</text>
<text text-anchor="start" x="207.7415" y="-215" font-family="Helvetica,sans-Serif" font-size="10.00" fill="#000000">+Author:string</text>
<text text-anchor="start" x="213.02" y="-203" font-family="Helvetica,sans-Serif" font-size="10.00" fill="#000000">+type:string</text>
<polygon fill="none" stroke="#000000" points="188,-158 188,-190 290,-190 290,-158 188,-158"/>
<text text-anchor="start" x="212.1905" y="-171" font-family="Helvetica,sans-Serif" font-size="10.00" fill="#000000">+reading():v</text>
</g>
<!-- A1 -->
<g id="node2" class="node">
<title>A1</title>
<polygon fill="none" stroke="#000000" points="82,-76 82,-108 177,-108 177,-76 82,-76"/>
<text text-anchor="start" x="102.129" y="-89" font-family="Helvetica,sans-Serif" font-size="10.00" fill="#000000">+PaperBack</text>
<polygon fill="none" stroke="#000000" points="82,-44 82,-76 177,-76 177,-44 82,-44"/>
<text text-anchor="start" x="91.577" y="-57" font-family="Helvetica,sans-Serif" font-size="10.00" fill="#000000">+HardCover:bool</text>
<polygon fill="none" stroke="#000000" points="82,0 82,-44 177,-44 177,0 82,0"/>
<text text-anchor="start" x="111.3035" y="-25" font-family="Helvetica,sans-Serif" font-size="10.00" fill="#000000">+Read()</text>
<text text-anchor="start" x="102.1345" y="-13" font-family="Helvetica,sans-Serif" font-size="10.00" fill="#000000">+Purchase()</text>
</g>
<!-- A0&#45;&gt;A1 -->
<g id="edge1" class="edge">
<title>A0&#45;&gt;A1</title>
<path fill="none" stroke="#000000" stroke-dasharray="5,2" d="M192.973,-149.3779C183.7444,-135.6189 174.1694,-121.3434 165.3254,-108.1578"/>
<polygon fill="#000000" stroke="#000000" points="198.6647,-157.8637 189.3571,-152.0655 195.8795,-153.7112 193.0943,-149.5588 193.0943,-149.5588 193.0943,-149.5588 195.8795,-153.7112 196.8315,-147.0521 198.6647,-157.8637 198.6647,-157.8637"/>
</g>
<!-- A2 -->
<g id="node3" class="node">
<title>A2</title>
<polygon fill="none" stroke="#000000" points="195,-76 195,-108 284,-108 284,-76 195,-76"/>
<text text-anchor="start" x="222.4075" y="-89" font-family="Helvetica,sans-Serif" font-size="10.00" fill="#000000">+Ebook</text>
<polygon fill="none" stroke="#000000" points="195,-44 195,-76 284,-76 284,-44 195,-44"/>
<text text-anchor="start" x="204.9115" y="-57" font-family="Helvetica,sans-Serif" font-size="10.00" fill="#000000">+Website:string</text>
<polygon fill="none" stroke="#000000" points="195,0 195,-44 284,-44 284,0 195,0"/>
<text text-anchor="start" x="221.3035" y="-25" font-family="Helvetica,sans-Serif" font-size="10.00" fill="#000000">+Read()</text>
<text text-anchor="start" x="212.1345" y="-13" font-family="Helvetica,sans-Serif" font-size="10.00" fill="#000000">+Purchase()</text>
</g>
<!-- A0&#45;&gt;A2 -->
<g id="edge2" class="edge">
<title>A0&#45;&gt;A2</title>
<path fill="none" stroke="#000000" stroke-dasharray="5,2" d="M239,-147.8181C239,-134.543 239,-120.8458 239,-108.1578"/>
<polygon fill="#000000" stroke="#000000" points="239,-157.8637 234.5001,-147.8636 239,-152.8637 239.0001,-147.8637 239.0001,-147.8637 239.0001,-147.8637 239,-152.8637 243.5001,-147.8637 239,-157.8637 239,-157.8637"/>
</g>
<!-- A3 -->
<g id="node4" class="node">
<title>A3</title>
<polygon fill="none" stroke="#000000" points="0,-228 0,-260 80,-260 80,-228 0,-228"/>
<text text-anchor="start" x="9.85" y="-241" font-family="Helvetica,sans-Serif" font-size="10.00" fill="#000000">+IPaperBack </text>
<polygon fill="none" stroke="#000000" points="0,-208 0,-228 80,-228 80,-208 0,-208"/>
<polygon fill="none" stroke="#000000" points="0,-176 0,-208 80,-208 80,-176 0,-176"/>
<text text-anchor="start" x="23.3335" y="-189" font-family="Helvetica,sans-Serif" font-size="10.00" fill="#000000"> Read()</text>
</g>
<!-- A3&#45;&gt;A1 -->
<g id="edge4" class="edge">
<title>A3&#45;&gt;A1</title>
<path fill="none" stroke="#000000" d="M67.7657,-166.8363C77.8809,-148.197 89.3464,-127.0695 99.5989,-108.1774"/>
<polygon fill="none" stroke="#000000" points="64.6133,-165.3073 62.9197,-175.7659 70.7657,-168.6462 64.6133,-165.3073"/>
</g>
<!-- A4 -->
<g id="node5" class="node">
<title>A4</title>
<polygon fill="none" stroke="#000000" points="99,-228 99,-260 170,-260 170,-228 99,-228"/>
<text text-anchor="start" x="114.6285" y="-241" font-family="Helvetica,sans-Serif" font-size="10.00" fill="#000000">+IEbook </text>
<polygon fill="none" stroke="#000000" points="99,-208 99,-228 170,-228 170,-208 99,-208"/>
<polygon fill="none" stroke="#000000" points="99,-176 99,-208 170,-208 170,-176 99,-176"/>
<text text-anchor="start" x="108.6645" y="-189" font-family="Helvetica,sans-Serif" font-size="10.00" fill="#000000"> Purchase()</text>
</g>
<!-- A4&#45;&gt;A1 -->
<g id="edge3" class="edge">
<title>A4&#45;&gt;A1</title>
<path fill="none" stroke="#000000" d="M132.4013,-165.5616C131.8426,-147.2378 131.2146,-126.6401 130.6517,-108.1774"/>
<polygon fill="none" stroke="#000000" points="128.9092,-165.8773 132.7124,-175.7659 135.9059,-165.6639 128.9092,-165.8773"/>
</g>
<!-- A4&#45;&gt;A2 -->
<g id="edge5" class="edge">
<title>A4&#45;&gt;A2</title>
<path fill="none" stroke="#000000" d="M166.4322,-167.344C178.4449,-148.5813 192.1077,-127.2412 204.3133,-108.1774"/>
<polygon fill="none" stroke="#000000" points="163.4845,-165.4569 161.0401,-175.7659 169.3798,-169.2313 163.4845,-165.4569"/>
</g>
</g>
</svg>
