<?xml version="1.0" encoding="UTF-8" standalone="no"?>
<!DOCTYPE svg PUBLIC "-//W3C//DTD SVG 1.1//EN"
 "http://www.w3.org/Graphics/SVG/1.1/DTD/svg11.dtd">
<!-- Generated by graphviz version 2.40.1 (20161225.0304)
 -->
<!-- Title: G Pages: 1 -->
<svg width="298pt" height="458pt"
 viewBox="0.00 0.00 298.00 458.00" xmlns="http://www.w3.org/2000/svg" xmlns:xlink="http://www.w3.org/1999/xlink">
<g id="graph0" class="graph" transform="scale(1 1) rotate(0) translate(4 454)">
<title>G</title>
<polygon fill="#ffffff" stroke="transparent" points="-4,4 -4,-454 294,-454 294,4 -4,4"/>
<!-- A0 -->
<g id="node1" class="node">
<title>A0</title>
<polygon fill="none" stroke="#000000" points="3,-418 3,-450 134,-450 134,-418 3,-418"/>
<text text-anchor="start" x="41.415" y="-431" font-family="Helvetica,sans-Serif" font-size="10.00" fill="#000000">+A:HotDrink</text>
<polygon fill="none" stroke="#000000" points="3,-338 3,-418 134,-418 134,-338 3,-338"/>
<text text-anchor="start" x="40.016" y="-399" font-family="Helvetica,sans-Serif" font-size="10.00" fill="#000000">+instant:bool</text>
<text text-anchor="start" x="45.8595" y="-387" font-family="Helvetica,sans-Serif" font-size="10.00" fill="#000000">+milk:bool</text>
<text text-anchor="start" x="43.4945" y="-375" font-family="Helvetica,sans-Serif" font-size="10.00" fill="#000000">&#45;sugar:byte</text>
<text text-anchor="start" x="39.186" y="-363" font-family="Helvetica,sans-Serif" font-size="10.00" fill="#000000">+brand:string</text>
<text text-anchor="start" x="43.0795" y="-351" font-family="Helvetica,sans-Serif" font-size="10.00" fill="#000000">+size:string</text>
<polygon fill="none" stroke="#000000" points="3,-306 3,-338 134,-338 134,-306 3,-306"/>
<text text-anchor="start" x="21.9675" y="-319" font-family="Helvetica,sans-Serif" font-size="10.00" fill="#000000">+Customer:customer</text>
<polygon fill="none" stroke="#000000" points="3,-274 3,-306 134,-306 134,-274 3,-274"/>
<text text-anchor="start" x="35.4475" y="-287" font-family="Helvetica,sans-Serif" font-size="10.00" fill="#000000">()(brand:string)</text>
<polygon fill="none" stroke="#000000" points="3,-242 3,-274 134,-274 134,-242 3,-242"/>
<text text-anchor="start" x="12.5105" y="-255" font-family="Helvetica,sans-Serif" font-size="10.00" fill="#000000">+AddSugar(amount:byte)</text>
<polygon fill="none" stroke="#000000" points="3,-210 3,-242 134,-242 134,-210 3,-210"/>
<text text-anchor="start" x="47.804" y="-223" font-family="Helvetica,sans-Serif" font-size="10.00" fill="#000000">+Steam()</text>
</g>
<!-- A2 -->
<g id="node3" class="node">
<title>A2</title>
<polygon fill="none" stroke="#000000" points="0,-128 0,-160 136,-160 136,-128 0,-128"/>
<text text-anchor="start" x="35.906" y="-141" font-family="Helvetica,sans-Serif" font-size="10.00" fill="#000000">+CupOfCoffee</text>
<polygon fill="none" stroke="#000000" points="0,-96 0,-128 136,-128 136,-96 0,-96"/>
<text text-anchor="start" x="29.237" y="-109" font-family="Helvetica,sans-Serif" font-size="10.00" fill="#000000">+beanType:string</text>
<polygon fill="none" stroke="#000000" points="0,-64 0,-96 136,-96 136,-64 0,-64"/>
<text text-anchor="start" x="64.671" y="-77" font-family="Helvetica,sans-Serif" font-size="10.00" fill="#000000">()</text>
<polygon fill="none" stroke="#000000" points="0,-32 0,-64 136,-64 136,-32 0,-32"/>
<text text-anchor="start" x="9.937" y="-45" font-family="Helvetica,sans-Serif" font-size="10.00" fill="#000000">(brand:string):base(brand)</text>
<polygon fill="none" stroke="#000000" points="0,0 0,-32 136,-32 136,0 0,0"/>
<text text-anchor="start" x="47.304" y="-13" font-family="Helvetica,sans-Serif" font-size="10.00" fill="#000000">+Steam()</text>
</g>
<!-- A0&#45;&gt;A2 -->
<g id="edge2" class="edge">
<title>A0&#45;&gt;A2</title>
<path fill="none" stroke="#000000" d="M68,-199.5414C68,-186.1869 68,-172.9157 68,-160.339"/>
<polygon fill="#000000" stroke="#000000" points="68,-209.7597 63.5001,-199.7597 68,-204.7597 68.0001,-199.7597 68.0001,-199.7597 68.0001,-199.7597 68,-204.7597 72.5001,-199.7598 68,-209.7597 68,-209.7597"/>
</g>
<!-- A1 -->
<g id="node2" class="node">
<title>A1</title>
<polygon fill="none" stroke="#000000" points="154,-108 154,-140 290,-140 290,-108 154,-108"/>
<text text-anchor="start" x="197.414" y="-121" font-family="Helvetica,sans-Serif" font-size="10.00" fill="#000000">+Customer</text>
<polygon fill="none" stroke="#000000" points="154,-52 154,-108 290,-108 290,-52 154,-52"/>
<text text-anchor="start" x="192.9655" y="-89" font-family="Helvetica,sans-Serif" font-size="10.00" fill="#000000">+name:string</text>
<text text-anchor="start" x="165.891" y="-77" font-family="Helvetica,sans-Serif" font-size="10.00" fill="#000000">&#45;creditCardNumber:string</text>
<text text-anchor="start" x="163.5265" y="-65" font-family="Helvetica,sans-Serif" font-size="10.00" fill="#000000">+CreditCardNumber:string</text>
<polygon fill="none" stroke="#000000" points="154,-20 154,-52 290,-52 290,-20 154,-20"/>
<text text-anchor="start" x="203.249" y="-33" font-family="Helvetica,sans-Serif" font-size="10.00" fill="#000000">+Greet()</text>
</g>
<!-- A3 -->
<g id="node4" class="node">
<title>A3</title>
<polygon fill="none" stroke="#000000" points="187,-330 187,-362 258,-362 258,-330 187,-330"/>
<text text-anchor="start" x="196.5245" y="-343" font-family="Helvetica,sans-Serif" font-size="10.00" fill="#000000">+ICustomer</text>
<polygon fill="none" stroke="#000000" points="187,-298 187,-330 258,-330 258,-298 187,-298"/>
<text text-anchor="start" x="206.6685" y="-311" font-family="Helvetica,sans-Serif" font-size="10.00" fill="#000000">Greet()</text>
</g>
<!-- A3&#45;&gt;A1 -->
<g id="edge1" class="edge">
<title>A3&#45;&gt;A1</title>
<path fill="none" stroke="#000000" d="M222,-287.7665C222,-247.3141 222,-185.8578 222,-140.2678"/>
<polygon fill="none" stroke="#000000" points="218.5001,-287.8286 222,-297.8287 225.5001,-287.8287 218.5001,-287.8286"/>
</g>
</g>
</svg>
